<svg version="1.1" viewBox="0 0 457.26 324.15" xmlns="http://www.w3.org/2000/svg">
  <g transform="translate(-11.372 -77.927)">
    <g transform="matrix(2.4419 0 0 2.4419 -34.01 -45.112)" fill="#fff" stroke-width=".83629">
      <path d="m79.036 122.75c19.893-0.1249 52.446-0.1249 72.339 0 19.893 0.12489 3.617 0.22707-36.17 0.22707-39.787 0-56.063-0.10218-36.17-0.22707z"/>
      <path d="m42.657 111.9c1.7249-0.18042 4.5473-0.18042 6.2722 0 1.7249 0.18043 0.31361 0.32805-3.1361 0.32805s-4.8609-0.14762-3.1361-0.32805z"/>
      <path d="m183.15 111.9c1.7248-0.18042 4.5473-0.18042 6.2722 0 1.7248 0.18043 0.31361 0.32805-3.1361 0.32805-3.4497 0-4.861-0.14762-3.1361-0.32805z"/>
      <path d="m53.7 180.7c-2.4623-2.4623-2.6278-5.4146-0.45419-8.0992 2.037-2.5158 144.93-3.643 149.69-1.1808 4.0564 2.0976 3.8112 9.2076-0.37293 10.813-4.9851 1.913-146.88 0.4515-148.86-1.5332zm-32.272-22.627c-4.0817-2.2177-3.6882-8.3697 0.66212-10.352 4.3906-2.0005 146.02-1.2335 148.62 0.80478 3.0474 2.397 3.0474 6.6808 0 9.0778-2.8888 2.2724-145.14 2.7196-149.28 0.4693zm20.931-23.077c-4.1406-1.5331-5.1837-6.4238-2.0405-9.567 2.944-2.944 147.22-3.3093 150.15-0.38013 2.254 2.254 2.2093 6.7816-0.0876 8.8605-1.9994 1.8096-143.27 2.8467-148.02 1.0866zm-2.0362-26.577c3.5053-9.9351 17.386-22.675 24.706-22.675 0.9326 0 1.7605-1.1978 2.4568-3.5542 12.094-40.932 72.38-42.893 85.029-2.7658 1.3566 4.3037 1.3566 4.3037 8.5422 5.2835 14.742 2.0103 31.08 15.63 31.086 25.916 3e-3 3.564-12.23 1.0949-14.886-3.0048-5.2057-8.0338-11.662-10.913-24.59-10.966-8.9522-0.03671-8.9522-0.03671-9.4523-3.1728-1.7572-11.02-4.5704-16.928-10.674-22.415-19.449-17.486-49.915-6.9282-54.047 18.73-1.0714 6.6528-0.93874 6.5025-6.2186 7.0474-7.8166 0.80674-17.539 7.3712-19.345 13.062-0.50761 1.5993-1.1795 1.765-7.1571 1.765-6.5969 0-6.5969 0-5.4504-3.2496z"/>
    </g>
  </g>
</svg>
