<svg version="1.1" viewBox="0 0 478.81 473.57" xmlns="http://www.w3.org/2000/svg">
  <g transform="translate(-13.009 -9.2881)">
    <g fill="#fff">
      <path d="m192.47 368c0-33.275 0.12594-46.888 0.27988-30.25s0.15394 43.862 0 60.5-0.27988 3.025-0.27988-30.25zm2.2e-4 -242.5c1.3e-4 -33.55 0.12603-47.13 0.27978-30.178 0.15375 16.952 0.15365 44.402-2.3e-4 61-0.15387 16.598-0.27967 2.7281-0.27955-30.822z"/>
      <path d="m467 293.83c4.1548-4.1904 12.139-10.883 9.5-7.9638-1.65 1.8256-4.8 4.7047-7 6.398s-3.325 2.3979-2.5 1.5658zm-437.5-88.83c3.2656-3.3 6.1624-6 6.4374-6s-2.1718 2.7-5.4374 6-6.1624 6-6.4374 6 2.1718-2.7 5.4374-6z"/>
      <path d="m238.06 481.01c-16.954-4.5937-28.574-13.554-37.408-28.846-7.6298-13.207-7.6506-13.437-7.6506-84.277 0-62.793 0-62.793-65.75-63.106-74.297-0.35292-70.653 0.017-85.032-8.6325-43.934-26.428-36.981-88.097 11.948-105.97 7.3346-2.6792 7.3346-2.6792 73.085-2.976s65.75-0.29676 65.767-62.5c0.0185-66.373 0.23062-69.755 5.0394-80.343 17.332-38.163 66.329-47.043 95.977-17.394 17.552 17.552 17.932 19.621 17.951 97.737 0.01535 62.203 0.01535 62.203 65.765 62.525 65.726 0.32187 65.752 0.32282 72.25 2.6291 43.414 15.409 55.792 65.564 23.975 97.142-17.527 17.395-20.456 17.92-100.22 17.965-61.75 0.03489-61.75 0.03489-61.767 61.785-0.0142 50.43-0.28679 63.033-1.487 68.75-6.7943 32.361-41.196 53.974-72.437 45.509z"/>
    </g>
  </g>
</svg>
