<svg version="1.1" viewBox="0 0 408.98 465.09" xmlns="http://www.w3.org/2000/svg">
  <g transform="translate(-104.39 2.505)">
    <path d="m141.77 446.94c-10.582-10.048-18.059-27.424-17.426-40.496 0.19041-3.9337-0.20004-4.8756-2.5859-6.238-25.003-14.277-22.482-52.976 4.2266-64.885 6.0727-2.7078 6.0727-2.7078 8.4273-9.1231 19.939-54.327 104.64-43.123 104.89 13.873 0.0204 4.7034 0.0311 4.7187 6.1656 8.7752 26.481 17.511 26.528 54.685 0.0908 73.113-5.4649 3.8094-7.7346 6.1457-13.091 13.476-22.645 30.989-64.579 36.308-90.699 11.506zm33.916 0.68121c18.679 2.8553 33.128-3.9642 44.416-20.963 7.4261-11.183 7.4261-11.183 13.239-13.894 22.699-10.586 22.572-41.298-0.22711-54.744-9.9424-5.8636-9.5343-5.2608-8.7994-13.001 4.3761-46.092-65.627-55.618-76.912-10.467-2.1148 8.4612-3.3416 9.9971-9.3515 11.707-21.982 6.2546-26.041 29.84-7.2265 41.985 9.2964 6.001 9.5929 6.5058 8.7665 14.926-2.1332 21.736 13.508 40.997 36.095 44.45zm12.603-19.237c-1.6543-4.7671 0.84512-9.0488 5.9807-10.245 8.8383-2.0589 14.451 9.2839 6.9609 14.067-5.2016 3.3213-11.063 1.5904-12.942-3.8216zm-13.768-60.471c-1.1801-4.7654 1.144-8.1156 6.4946-9.3621 11.177-2.6037 14.985 11.383 4.0519 14.881-5.1645 1.6525-9.3074-0.51563-10.547-5.5193zm128.55 0.11066c-7.1022-6.2357 1.7701-17.51 10.056-12.778 4.0318 2.3023 5.1477 4.7356 3.9603 8.6361-1.8226 5.9872-9.3733 8.2185-14.016 4.142zm-80.276-110.58c-1.3493-5.4485 2.9361-10.402 8.697-10.053 6.7178 0.40717 10.283 6.7111 6.7963 12.019-4.1098 6.2568-13.76 5.0323-15.493-1.966zm138.29 77.707c-8.044-7.5914-13.257-18.709-13.441-28.668-0.0597-3.2188-0.18467-5.8958-0.2777-5.9489-0.0931-0.0531-3.4044-0.45137-7.3586-0.88481-32.329-3.5444-56.841-31.085-54.164-60.856 3.8824-43.173 55.209-67.144 94.78-44.265 8.505 4.9174 8.505 4.9174 12.713-1.4893 10.936-16.65 32.82-28.954 53.292-29.964 54.346-2.6826 85.713 53.31 54.167 96.695-6.535 8.9876-6.535 8.9876-5.1817 14.17 9.7478 37.329-29.603 77.623-66.989 68.594-3.0906-0.74641-5.3137-0.39615-9.3826 1.4781-19.597 9.0274-42.978 5.4651-58.158-8.8611zm31.975 0.35415c6.4154 0.4128 16.422-2.05 23.987-5.9038 3.8065-1.939 6.1377-2.348 10.203-1.79 23.304 3.1987 37.337-2.265 48.119-18.734 8.6262-13.177 9.297-23.502 2.6187-40.312-1.4084-3.545-1.6354-3.1603 8.1469-13.808 27.436-29.865 6.3353-77-34.85-77.848-23.646-0.48688-40.248 11.699-53.077 38.956-1.4473 3.075-2.3153 3.8699-4.8781 4.4669-3.4487 0.80341-4.0146 0.45708-14.016-8.5773-26.173-23.642-71.495-9.9635-77.881 23.505-5.2361 27.438 18.703 51.879 49.423 50.459 12.357-0.57146 13.976 1.0565 12.257 12.325-2.8875 18.93 10.858 36.033 29.948 37.261zm-51-93.126c-0.77426-4.0953-0.0988-6.0631 2.8668-8.3517 7.0978-5.4773 17.094 3.0232 12.242 10.41-3.8564 5.871-13.868 4.5071-15.109-2.0584zm82.2 26.351c-4.6288-7.2328 4.0757-15.644 11.69-11.296 6.2466 3.567 5.0997 12.217-1.8879 14.239-4.1568 1.2029-7.8606 0.091-9.8021-2.9427zm18.92-49.959c-1.8705-7.553 8.8909-13.108 14.664-7.5691 6.9847 6.7013-2.1771 17.504-10.712 12.63-2.17-1.2392-3.3935-2.806-3.9519-5.061zm-272.66-39.832c-24.917-19.05-30.37-54.667-12.598-82.285 3.9684-6.1671 3.9684-6.1671 0.54554-10.85-41.738-57.1 47.625-122.47 92.501-67.668 1.9263 2.3524 3.5447 4.3016 3.5965 4.3315 0.0516 0.03009 2.9241-1.3068 6.3829-2.9704 35.74-17.19 81.724 1.3696 92.864 37.482 12.471 40.429-21.515 83.855-64.91 82.939-8.7154-0.18406-8.1529-0.5396-10.529 6.6547-14.41 43.625-70.938 60.589-107.85 32.367zm32.02-0.9674c30.68 6.0534 57.429-13.132 64.116-45.984 1.1236-5.5204 3.5887-7.7653 8.0758-7.3541 1.4862 0.13615 5.6491 0.54147 9.251 0.90064 23.239 2.3174 47.334-12.723 54.48-34.008 15.363-45.756-34.88-81.185-78.674-55.476-8.9971 5.2818-11.28 4.9146-16.257-2.6143-13.647-20.647-39.886-26.978-60.591-14.62-22.88 13.657-26.935 42.056-8.8238 61.796 7.5699 8.2506 7.57 8.2025-0.0373 18.284-23.512 31.161-8.9222 71.7 28.46 79.076zm11.259-75.564c-4.7432-7.4565 4.0889-15.197 12.112-10.615 7.9357 4.5315 1.8812 16.384-7.1875 14.07-2.3577-0.60148-3.7161-1.5544-4.9249-3.4546zm55.369-30.991c-1.7044-6.8823 6.1364-11.971 12.684-8.2326 4.0502 2.3128 5.4507 7.2768 3.0739 10.895-2.3768 3.6185-7.7556 4.7112-11.806 2.3984-2.17-1.2392-3.3934-2.806-3.9519-5.061zm61.048 85.871c-1.8565-7.4966 5.5839-13.076 12.249-9.1853 9.2914 5.4235 2.2272 17.798-8.1521 14.28-2.5808-0.87469-3.2619-1.7216-4.0972-5.0944z" fill="#fff"/>
  </g>
</svg>
