<svg version="1.1" viewBox="0 0 459.49 408.31" xmlns="http://www.w3.org/2000/svg">
  <defs>
    <filter id="a" x="-.071287" y="-.071287" width="1.155" height="1.155" color-interpolation-filters="sRGB">
      <feFlood flood-color="rgb(0,0,0)" flood-opacity=".49804" result="flood"/>
      <feComposite in="flood" in2="SourceGraphic" operator="in" result="composite1"/>
      <feGaussianBlur in="composite1" result="blur" stdDeviation="12"/>
      <feOffset dx="5" dy="5" result="offset"/>
      <feComposite in="SourceGraphic" in2="offset" result="composite2"/>
    </filter>
  </defs>
  <g transform="translate(-607.74 -619.95)" display="none">
    <path d="m761.48 619.6v128.5h-128.5v147h128.5v128.5h147v-128.5h128.5v-147h-128.5v-128.5z" fill="#fff" fill-opacity=".94639" filter="url(#a)" stroke-width=".93384"/>
  </g>
  <g transform="translate(-207.28 -236.7)" display="none">
    <path d="m299.58 637.93c-11.929-5.1911-15.039-14.271-11.123-32.479 3.3665-15.655 6.2883-20.043 12.37-18.578 3.0484 0.73435 20.439 13.824 24.496 18.438 3.6316 4.13 6.3829 9.9368 6.4033 13.514 0.0441 7.7702-5.5496 15.994-13.135 19.309-5.2676 2.3027-13.452 2.2147-19.011-0.20435zm15.843-14.016c3.0227-3.5799 2.1473-6.0876-4.2286-12.113-3.2641-3.0848-6.2882-5.6086-6.7203-5.6086-1.2414 0-1.9232 2.4731-2.5953 9.415-0.66496 6.8675 0.0633 8.7393 4.0047 10.291 3.0629 1.2061 7.6515 0.25156 9.5396-1.9846zm74.827 14.016c-12.689-5.5216-15.35-15.103-10.243-36.885 1.9218-8.1977 2.9237-10.722 4.9203-12.399 4.5798-3.8464 7.7154-2.607 21.703 8.5786 13.278 10.618 16.999 17.293 14.828 26.603-1.3873 5.95-6.322 11.738-12.196 14.306-5.2676 2.3027-13.452 2.2147-19.011-0.20435zm15.26-13.169c2.492-1.9219 2.4516-5.612-0.0995-9.0934-2.7612-3.7682-10.114-9.9525-10.917-9.182-0.96963 0.93069-2.2472 7.6606-2.2704 11.96-0.0231 4.2721 1.3288 6.412 4.8515 7.6793 1.7905 0.64412 6.9033-0.18271 8.4351-1.3641zm74.854 12.891c-2.7191-1.2153-6.3184-3.8103-7.9985-5.7666-5.682-6.6164-5.9476-15.033-1.064-33.723 2.2052-8.4394 4.719-11.622 9.1786-11.622 4.6152 0 26.775 18.028 30.393 24.725 2.2939 4.2469 2.0704 12.366-0.4688 17.033-5.7258 10.524-18.512 14.506-30.04 9.3532zm12.993-11.87c3.5497-1.1877 5.7929-5.3921 4.3028-8.0646-1.891-3.3914-11.967-11.803-12.977-10.833-0.53267 0.51129-1.221 4.1337-1.5295 8.0498-0.59564 7.5596 0.0902 9.4055 4.0703 10.954 2.6633 1.0362 2.7227 1.0351 6.1334-0.10611zm79.239 12.872c-5.1086-1.5625-12.301-8.7334-13.655-13.615-1.4085-5.0756-0.57636-13.477 2.5156-25.398 2.4769-9.5495 5.0904-13.101 9.641-13.101 4.8828 0 28.281 19.586 30.703 25.701 1.6514 4.169 1.1831 12.374-0.93351 16.356-4.8791 9.1797-17.02 13.499-28.271 10.057zm13.981-14.615c3.4278-3.2902 2.3724-6.4468-4.1916-12.536-4.4148-4.0956-6.3121-5.3101-7.1056-4.5484-0.59546 0.57154-1.2825 4.3535-1.5269 8.4044-0.43445 7.2036-0.38313 7.4114 2.3374 9.4654 3.2124 2.4254 7.4742 2.1062 10.487-0.78527zm-247.35-53.939c-6.3126-1.932-12.545-7.947-14.234-13.738-1.5503-5.3146-0.83715-13.062 2.3768-25.823 2.3518-9.3374 5.0668-13.248 9.1971-13.248 4.9364 0 26.744 17.788 30.194 24.628 2.3922 4.7432 2.6773 12.049 0.65032 16.666-4.2983 9.79-16.942 14.956-28.185 11.515zm12.553-14.867c3.8186-3.6653 3.105-5.9699-3.9174-12.65-3.4708-3.3018-6.5888-5.7361-6.9289-5.4096-0.3401 0.32645-0.84903 4.1422-1.1309 8.4795-0.4657 7.1645-0.32238 8.0685 1.5667 9.8817 2.8401 2.726 7.394 2.5943 10.411-0.30119zm79.901 15.51c-7.7832-1.9553-14.295-7.8228-16.221-14.617-2.264-7.9842 2.3384-31.737 7.0201-36.23 1.4927-1.4327 3.5499-2.6049 4.5717-2.6049 4.0668 0 23.304 14.83 28.809 22.209 7.2028 9.6542 3.2223 23.718-8.3115 29.366-4.3217 2.1162-11.525 2.9681-15.868 1.8769zm10.769-15.51c1.3162-1.2633 2.393-3.2044 2.393-4.3136 0-2.3169-12.121-14.82-13.284-13.703-0.40801 0.39163-0.92718 4.4328-1.1537 8.9803-0.38981 7.8259-0.28989 8.3502 1.8678 9.8009 3.3063 2.2228 7.3841 1.9166 10.177-0.76433zm79.901 15.51c-10.518-2.6423-17.062-10.603-17.062-20.756 0-5.5766 3.2776-21.807 5.4618-27.047 2.0142-4.8318 6.0353-6.552 10.451-4.471 4.5995 2.1677 18.633 13.3 22.551 17.89 6.3361 7.4219 7.9714 14.777 4.8699 21.903-4.0353 9.2722-16.145 15.025-26.272 12.481zm10.087-14.851c1.109-0.90069 2.3071-2.8153 2.6625-4.2546 0.57336-2.3223-0.0935-3.3234-5.9218-8.89-6.4086-6.1209-6.5893-6.2185-7.4528-4.0246-0.48673 1.2366-0.94177 5.2018-1.0112 8.8116-0.111 5.77 0.14057 6.7706 2.0816 8.2792 2.7875 2.1665 7.0283 2.201 9.6418 0.0784zm80.583 14.851c-6.7752-1.7021-12.345-6.0168-15.488-11.997-2.7574-5.2475-1.6261-18.704 2.8014-33.322 1.2715-4.198 2.2447-5.6596 4.521-6.7894 3.8238-1.8979 5.7299-1.2373 14.503 5.0261 18.237 13.02 23.688 21.883 20.415 33.193-2.7968 9.6668-16.089 16.568-26.752 13.889zm8.7308-13.794c0.86802-0.31972 2.2313-1.7936 3.0296-3.2753 1.9029-3.532 0.50566-6.2308-6.4675-12.491-5.9244-5.3191-6.0745-5.2082-7.2533 5.3576-0.65044 5.8297-0.54479 6.3314 1.8091 8.5908 2.4333 2.3356 5.6755 2.9993 8.882 1.8182zm-362.38 12.806c-5.0576-1.5673-9.7639-5.0436-12.562-9.2794-2.4122-3.6509-2.8054-5.1754-2.7978-10.849 0.0103-7.3458 4.005-25.788 6.3217-29.182 2.0266-2.9687 5.8313-3.7446 9.6152-1.9608 4.9788 2.3472 19.021 13.675 23.117 18.649 7.3667 8.9452 7.2123 18.741-0.42246 26.805-4.762 5.03-16.413 7.9425-23.271 5.8173zm12.173-14.782c3.4508-2.9849 2.1969-6.861-4.1772-12.912-6.7908-6.4469-7.2738-6.2661-8.3203 3.1139-0.75259 6.7454 0.33071 10.072 3.715 11.408 2.6948 1.064 6.497 0.3671 8.7824-1.6098zm1.7062-60.303c-32.164-4.4016-59.536-27.353-67.886-56.921-2.6298-9.3133-2.4089-27.269 0.45426-36.911 5.7477-19.355 18.857-35.296 37.743-45.898 5.537-3.1081 6.3717-3.9731 7.7906-8.0734 4.0664-11.751 14.685-22.086 27.786-27.042 12.031-4.5516 27.313-4.1856 38.715 0.92718l6.0934 2.7323 0.034-3.9279c0.0515-5.9448 2.4111-17.229 5.0394-24.1 7.5761-19.805 22.736-35.73 43.186-45.367 14.903-7.0224 21.433-8.2965 42.41-8.2744 16.454 0.0173 18.89 0.23894 27.763 2.5258 31.398 8.0923 56.473 29.066 65.932 55.149 1.5392 4.2441 2.8043 8.6641 2.8115 9.8221 7e-3 1.158 0.22862 2.1055 0.49208 2.1055s2.4684-1.4575 4.8999-3.239c5.9309-4.3453 15.358-8.567 22.98-10.292 8.265-1.8699 26.046-1.8711 33.589-2e-3 23.156 5.7373 39.768 22.266 44.201 43.979l1.5615 7.6475 7.3224 3.3543c20.37 9.3308 36.589 28.131 42.553 49.323 2.3692 8.4187 2.3581 27.208-0.0209 35.56-8.6396 30.329-35.607 52.521-69.285 57.017-9.5142 1.2702-316.85 1.179-326.17-0.0967zm329.04-14.338c8.1849-1.6392 22.611-8.32 28.981-13.421 10.618-8.5025 19.306-21.69 22.295-33.841 1.749-7.1097 1.498-20.732-0.51584-27.999-5.324-19.21-21.422-35.971-41.011-42.7-7.4619-2.5631-8.004-3.2962-8.7972-11.897-1.2008-13.02-5.2801-21.352-14.408-29.428-7.7123-6.8234-20.329-11.499-30.904-11.454-7.0904 0.0305-19.017 2.4119-24.796 4.9512-6.7308 2.9577-14.449 9.8113-17.207 15.28-1.1612 2.3024-2.4554 7.1951-2.876 10.873-0.59598 5.2112-1.2385 7.0547-2.9123 8.3556-2.9535 2.2956-7.9999 2.1501-10.311-0.29723-1.6418-1.7382-1.9243-4.0456-2.4354-19.885-0.54756-16.972-0.7346-18.32-3.5373-25.506-3.9426-10.109-8.8221-17.234-17.302-25.266-10.987-10.406-25.919-17.955-42.655-21.563-10.63-2.2917-31.249-2.0822-40.866 0.41527-20.859 5.4166-38.166 18.811-46.801 36.221-5.7014 11.495-6.812 16.724-7.2191 33.994-0.19812 8.403-0.61311 16.043-0.92214 16.978-0.71224 2.1539-5.58 4.1318-8.2026 3.3329-1.0998-0.33503-4.2148-2.837-6.9224-5.56s-7.4339-6.1713-10.503-7.6629c-4.9909-2.4257-6.558-2.7122-14.842-2.7131-7.9411-8.8e-4 -10.033 0.34611-14.669 2.4331-10.021 4.5114-16.155 11.441-18.556 20.961-0.64897 2.5734-1.6174 5.215-2.1522 5.8702-0.53474 0.6552-4.5296 2.9574-8.8775 5.116-10.423 5.1749-22.007 16.113-27.212 25.696-19.902 36.642 2.1523 79.528 45.63 88.73 9.1533 1.9374 320.83 1.9256 330.51-0.0124z" fill="#fff" stroke-width=".95517"/>
  </g>
  <g transform="matrix(.95853 0 0 .95853 -11.223 -20.156)" fill="#fff">
    <path d="m233.75 416.27c2.0625-0.21574 5.4375-0.21574 7.5 0 2.0625 0.21575 0.375 0.39226-3.75 0.39226s-5.8125-0.17651-3.75-0.39226zm36 0c2.0625-0.21574 5.4375-0.21574 7.5 0 2.0625 0.21575 0.375 0.39226-3.75 0.39226s-5.8125-0.17651-3.75-0.39226zm-116-39c2.0625-0.21574 5.4375-0.21574 7.5 0 2.0625 0.21575 0.375 0.39226-3.75 0.39226s-5.8125-0.17651-3.75-0.39226zm36 0c2.0625-0.21574 5.4375-0.21574 7.5 0 2.0625 0.21575 0.375 0.39226-3.75 0.39226s-5.8125-0.17651-3.75-0.39226zm116 0c2.0625-0.21574 5.4375-0.21574 7.5 0 2.0625 0.21575 0.375 0.39226-3.75 0.39226s-5.8125-0.17651-3.75-0.39226zm36 0c2.0625-0.21574 5.4375-0.21574 7.5 0 2.0625 0.21575 0.375 0.39226-3.75 0.39226s-5.8125-0.17651-3.75-0.39226zm-164-62.021c46.612-0.14376 122.89-0.14376 169.5 0 46.612 0.14375 8.475 0.26137-84.75 0.26137s-131.36-0.11762-84.75-0.26137zm-141.8-10.5c-3.9529-4.25-3.9529-4.25 0.29705-0.29705 2.3375 2.1741 4.25 4.0866 4.25 4.25 0 0.75658-0.87085-4.9e-4 -4.5471-3.953zm11-11c-3.9529-4.25-3.9529-4.25 0.29705-0.29705 2.3375 2.1741 4.25 4.0866 4.25 4.25 0 0.75658-0.87085-4.9e-4 -4.5471-3.953zm376.8-79.439c0.9625-0.25152 2.5375-0.25152 3.5 0 0.9625 0.25153 0.175 0.45733-1.75 0.45733s-2.7125-0.2058-1.75-0.45733zm11-93.055c4.8125-0.18331 12.688-0.18331 17.5 0 4.8125 0.18332 0.875 0.3333-8.75 0.3333s-13.562-0.14998-8.75-0.3333zm-105-7.9448c0.9625-0.25152 2.5375-0.25152 3.5 0 0.9625 0.25153 0.175 0.45733-1.75 0.45733s-2.7125-0.2058-1.75-0.45733zm-4.4883-15.018c1.2439-0.23919 3.0439-0.23011 4 0.02018s-0.0617 0.446-2.2617 0.4349-2.9822-0.21588-1.7383-0.45508zm9 0c1.2439-0.23919 3.0439-0.23011 4 0.02018s-0.0617 0.446-2.2617 0.4349-2.9822-0.21588-1.7383-0.45508zm-121.01-15.998c1.2375-0.23835 3.2625-0.23835 4.5 0s0.225 0.43337-2.25 0.43337-3.4875-0.19502-2.25-0.43337zm-5.9883-15.002c1.2439-0.23919 3.0439-0.23011 4 0.02018s-0.0617 0.446-2.2617 0.4349-2.9822-0.21588-1.7383-0.45508zm13 0c1.2439-0.23919 3.0439-0.23011 4 0.02018s-0.0617 0.446-2.2617 0.4349-2.9822-0.21588-1.7383-0.45508z"/>
    <path d="m252.7 445.8c-0.72821-0.72821-1.2-4.2667-1.2-9 0-9.2335 0.34682-9.0985-7.191-2.8-6.2653 5.2351-7.633 5.776-9.609 3.8-2.312-2.312-1.1537-4.7187 4.3275-8.9913 5.5275-4.3087 5.5275-4.3087-0.25-4.5661-7.6725-0.34183-9.9417-0.92514-10.636-2.734-1.3915-3.6263 0.29693-4.5073 8.7153-4.5476 8.143-0.039 8.143-0.039 2.2828-5.3084-10.524-9.4626-4.9961-13.658 6.1102-4.638 6.25 5.0761 6.25 5.0761 6.25-2.8979 0-9.5456 1.8862-12.734 6-10.141 1.0671 0.6725 1.6443 3.3924 2 9.4239 0.5 8.4786 0.5 8.4786 6.5 3.5073 10.853-8.9918 16.264-4.6096 5.8602 4.7455-5.8602 5.2694-5.8602 5.2694 2.2828 5.3084 8.4184 0.0403 10.107 0.92133 8.7153 4.5476-0.69411 1.8088-2.9633 2.3921-10.636 2.734-5.7775 0.2574-5.7775 0.2574-0.25 4.5661 5.4812 4.2726 6.6395 6.6793 4.3275 8.9913-1.976 1.976-3.3437 1.4351-9.609-3.8-7.5378-6.2985-7.191-6.4335-7.191 2.8 0 7.9195-0.89432 10.2-4 10.2-0.88 0-2.14-0.54-2.8-1.2zm-80.032-39.097c-0.59221-0.71357-1.2098-4.8097-1.3724-9.1025-0.29571-7.8052-0.29571-7.8052-6.6732-2.7026-6.6992 5.36-7.9666 5.8584-9.9225 3.9025-2.2475-2.2475-1.2055-4.3169 4.4363-8.8107 5.6364-4.4893 5.6364-4.4893-2.1466-4.9893-13.705-0.88048-13.371-6.9986 0.3827-7.0018 7.6276-2e-3 7.6276-2e-3 1.7572-5.2555-10.463-9.3642-5.266-13.774 5.6683-4.8095 6.2021 5.0849 6.2021 5.0849 6.4564-1.6742 0.38358-10.194 0.78526-11.259 4.2457-11.259s3.8621 1.0652 4.2457 11.259c0.25433 6.7591 0.25433 6.7591 6.4564 1.6742 10.934-8.9646 16.132-4.5547 5.6683 4.8095-5.8704 5.2537-5.8704 5.2537 1.7572 5.2555 13.754 3e-3 14.088 6.1213 0.3827 7.0018-7.783 0.5-7.783 0.5-2.1466 4.9893 5.6419 4.4937 6.6839 6.5631 4.4363 8.8107-1.9559 1.9559-3.2233 1.4574-9.9225-3.9025-6.3775-5.1025-6.3775-5.1025-6.6732 2.7026-0.30734 8.1121-1.2322 10.4-4.2043 10.4-0.96531 0-2.2396-0.58382-2.8318-1.2974zm151.44-8.2844c-0.33385-0.86998-0.60699-4.9587-0.60699-9.0861 0-7.5043 0-7.5043-6.4821-2.3463-11.196 8.9091-16.426 4.7427-5.8848-4.6882 5.867-5.249 5.867-5.249-1.7606-5.2733-13.779-0.0438-14.076-6.1465-0.342-7.0243 7.8237-0.5 7.8237-0.5 2.1466-4.8716-5.6359-4.3399-6.7813-6.6242-4.477-8.9284 1.9561-1.9561 3.2235-1.4574 9.9225 3.9042 6.3775 5.1042 6.3775 5.1042 6.8775-3.1463 0.38829-6.4072 0.89098-8.4959 2.25-9.3491 3.6003-2.2602 5.2045 0.34805 5.75 9.3491 0.5 8.2505 0.5 8.2505 6.8775 3.1463 6.699-5.3615 7.9665-5.8602 9.9225-3.9042 2.3042 2.3042 1.1588 4.5885-4.477 8.9284-5.677 4.3716-5.677 4.3716 2.1466 4.8716 13.734 0.87772 13.437 6.9804-0.342 7.0243-7.6276 0.0243-7.6276 0.0243-1.7606 5.2733 10.449 9.3482 5.2542 13.721-5.6649 4.7692-6.2021-5.0849-6.2021-5.0849-6.4564 1.6742-0.38133 10.134-0.79678 11.259-4.1577 11.259-1.6982 0-3.1223-0.64713-3.481-1.5818zm-236.99-68.555c-44.178-5.6713-78.927-47.237-75.125-89.863 3.6048-40.415 31.602-70.235 73.679-78.476 2.0118-0.39401 2.9747-1.4504 3.8956-4.2738 27.999-85.839 137.95-117.87 209.17-60.942 6.7352 5.3839 6.7352 5.3839 13.5 4.0502 3.7206-0.7335 12.187-1.3659 18.814-1.4054 12.05-0.07174 12.05-0.07174 16.236-4.9322 20.346-23.62 61.731-4.9731 55.319 24.925-1.3924 6.4925 8.2504 19.32 12.36 16.441 6.1668-4.3194 40.535 13.487 40.535 21.001 0 8.6569-6.4734 9.2055-20.218 1.7134-12.837-6.997-12.506-6.9785-9.3954-0.52503 4.1102 8.5282 7.4511 20.766 8.7009 31.873 0.6729 5.98 1.695 10.861 2.3099 11.03 30.154 8.3191 48.53 26.954 53.27 54.02 6.0951 34.804-19.309 69.692-54.962 75.478-7.7982 1.2656-338.18 1.1571-348.09-0.11426zm347.28-14.926c60.112-13.857 50.307-100.67-11.399-100.92-4-0.016-4-0.016-3.6635-11.537 1.6774-57.424-51.156-99.51-108.58-86.491-10.172 2.3062-10.172 2.3062-16.123-3.204-49.817-46.121-132.56-38.159-173.4 16.686-8.9478 12.016-19.735 35.825-19.735 43.557 0 1.458-1.0035 1.9698-4.75 2.4227-20.584 2.4882-33.404 7.5311-45.104 17.743-45.481 39.694-23.088 112.71 37.354 121.8 7.9126 1.1901 340.23 1.131 345.4-0.0614zm-11.745-195.69c-3.6567-3.0942-3.7765-6.7808-0.33244-10.225 4.7298-4.7298 37.628-4.7298 42.358 0 3.4441 3.4441 3.3242 7.1307-0.33244 10.225-3.1131 2.6342-38.58 2.6342-41.693 0zm-117.35-33.915c-18.444-10.223-20.938-13.291-15.349-18.881 3.8777-3.8777 6.8265-3.1456 22.557 5.601 18.83 10.47 22.034 14.617 15.353 19.872-4.0676 3.1996-5.8187 2.6879-22.562-6.5922zm109.37 6.3504c-5.5384-5.8953-2.8206-9.269 15.814-19.63 16.176-8.994 19.509-9.7816 22.939-5.4207 4.6551 5.918 2.035 8.9225-16.897 19.376-15.461 8.5368-18.441 9.3104-21.856 5.6749zm-75.288-18.689c-1.9956-1.1662-19.886-30.998-19.886-33.159 0-6.0241 9.5052-9.2095 13.687-4.5868 4.883 5.3985 18.382 30.231 17.803 32.75-1.1316 4.9219-7.2339 7.5495-11.603 4.9961zm55.165-0.75391c-3.9897-3.2307-3.0204-6.8744 5.8608-22.031 9.155-15.624 10.806-17.544 15.088-17.544 9.5599 0 9.2467 6.7618-1.1201 24.186-10.553 17.736-13.81 20.264-19.829 15.39zm-28.191-8.2286c-2.9864-2.9864-2.9864-2.9864-2.6731-21.09 0.346-19.995 1.0389-21.971 7.6741-21.891 6.8457 0.08249 8.1392 3.7302 8.1392 22.952 0 17.467-0.87242 21.213-5.21 22.375-3.8643 1.0352-4.8373 0.74736-7.9302-2.3456z"/>
  </g>
</svg>
