<svg version="1.1" viewBox="0 0 223.89 143.74" xmlns="http://www.w3.org/2000/svg">
  <g transform="translate(-.093475 -40.218)">
    <path d="m21.191 181.48c-3.3015-2.597-3.6125-7.9498-0.63486-10.927 2.9276-2.9276 110.35-3.156 113.95-0.24221 3.2577 2.6379 3.0881 7.9532-0.34806 10.909-4.0406 3.4756-108.57 3.7169-112.97 0.26077zm22.837-32.365c-3.1669-3.1669-3.2325-7.4994-0.15734-10.388 3.8849-3.6496 163.57-3.3821 167.23 0.28024 2.9443 2.9443 3.1422 6.4745 0.54313 9.6847-3.0984 3.8268-163.81 4.2329-167.62 0.42348zm-25.837-31.635c-3.6439-2.8663-3.6439-7.9886 0-10.855 4.5282-3.5618 163.33-3.1984 166.91 0.38197 1.35 1.35 2.4546 3.6204 2.4546 5.0454s-1.1046 3.6954-2.4546 5.0454c-3.5804 3.5804-162.38 3.9438-166.91 0.38197zm36.708-32.494c-3.0424-3.0424-2.6988-7.8028 0.77099-10.684 2.3779-1.9743 159.07-2.7705 164.16-0.83412 5.0937 1.9366 5.6396 10.452 0.83488 13.023-5.0885 2.7233-162.98 1.2894-165.77-1.5055zm-51.648-30.545c-4.616-2.6853-4.0529-10.493 0.92008-12.759 5.6984-2.5964 138.88-1.4673 141.99 1.2036 3.4361 2.9556 3.6057 8.271 0.34806 10.909-2.5938 2.1003-139.69 2.7192-143.25 0.64667z" fill="#fff"/>
  </g>
</svg>
