<svg version="1.1" viewBox="0 0 314.83 347.26" xmlns="http://www.w3.org/2000/svg">
  <g transform="translate(-5.3561 -7.4238)">
    <path d="m99.742 354.11c-29.914-0.68643-35.189-2.3737-41.823-13.377-3.0224-5.0135-9.299-64.51-16.638-157.71-0.8445-10.725-1.7974-22.737-2.1176-26.694-0.68382-8.4507-0.8871-8.6744-9.7493-10.73-20.035-4.6465-25.851-18.158-23.605-54.846 1.9255-31.462 8.9387-35.601 60.484-35.697l18.052-0.03368 1.0947-13.337c2.7216-33.158 8.2824-35.23 91.302-34.018l41.5 0.60597 5.825 3.0536c11.179 5.8605 15.511 14.389 16.404 32.3l0.55395 11.105 28.536 0.72012c46.067 1.1625 50.593 5.4155 50.626 47.57 0.0235 29.44-5.6043 38.876-25.618 42.954-7.9797 1.6258-7.3529-1.1671-11.806 52.604-11.77 142.14-10.902 133.27-13.57 138.54-3.5453 6.9963-7.8724 11.484-13.769 14.279-5.6386 2.6732-91.856 4.1733-155.68 2.7087zm145.35-29.357c0.31362-1.2496 3.7309-40.287 7.594-86.75 3.863-46.463 7.2756-85.941 7.5835-87.728l0.55978-3.25h-196.13l0.51967 2.25c0.28582 1.2375 3.6606 40.275 7.4996 86.75s7.2341 85.962 7.5447 87.75l0.56475 3.25h81.846c81.846 0 81.846 0 82.416-2.2719zm-116.81-34.483c-3.3287-0.80274-6.4081-3.2942-8.7741-7.0988-3.3451-5.3793-3.5756-86.405-0.26177-92.033 5.461-9.275 18.704-9.0359 23.494 0.42423 2.6079 5.1508 2.0072 88.637-0.66351 92.214-3.7475 5.0194-9.2225 7.5969-13.795 6.4942zm64 0c-3.3287-0.80274-6.4081-3.2942-8.7741-7.0988-3.6838-5.9239-3.5015-86.992 0.20776-92.406 5.9312-8.656 16.134-9.0137 22.003-0.77147 2.8036 3.9372 2.815 88.968 0.0127 94.521-2.0593 4.0813-8.6658 6.908-13.449 5.7545zm100.46-189.25v-18h-260v36h260zm-80-56v-10h-100v20h100z" fill="#fff"/>
  </g>
</svg>
