<svg version="1.1" viewBox="0 0 146.51 85.155" xmlns="http://www.w3.org/2000/svg">
  <g transform="translate(-1.3672 -14.357)">
    <path d="m38.635 63.601c-40.197-40.176-40.226-40.215-34.669-46.175 5.6603-6.0709 5.5589-6.143 40.107 28.517 33.476 33.585 29.948 31.333 37.326 23.825 3.1076-3.1625 6.2227-6.2453 6.9225-6.8508s2.4815-2.4054 3.9596-4 3.2781-3.3946 4-4 2.522-2.4054 4-4c1.478-1.5946 3.278-3.3946 4-4s2.522-2.4054 4-4 3.278-3.3946 4-4 2.522-2.4054 4-4 3.278-3.3946 4-4 2.5242-2.4054 4.0051-4c9.0173-9.7097 12.485-12.294 15.929-11.872 6.0362 0.74013 9.4238 6.6781 6.7253 11.788-2.19 4.1471-34.692 35.898-35.951 35.12-0.7614-0.47057-0.94404-0.32268-0.49625 0.40186 0.60826 0.98419-33.848 37.139-35.411 37.157-0.28129 0.0032-16.683-16.157-36.447-35.911z" fill="#808080" fill-opacity=".24709"/>
  </g>
</svg>
