<svg version="1.1" viewBox="0 0 110.85 89.28" xmlns="http://www.w3.org/2000/svg">
  <g transform="translate(-9.5785 -9.3098)">
    <path d="m61.217 97.402c-6.9894-4.0084-5.6303-14.466 2.1332-16.415 4.0308-1.0117 9.1209 1.9117 10.166 5.8388 2.1366 8.0281-5.4167 14.523-12.299 10.576zm13-27.003c-5.1706-2.8033-13.51-2.9837-19.214-0.41557-4.8219 2.171-8.6843 1.6187-10.342-1.4789-6.9406-12.969 32.23-17.242 40.624-4.4319 3.9066 5.9622-3.7097 10.316-11.068 6.3264zm15.5-18.349c-15.175-9.6789-35.478-9.8714-50.285-0.47668-7.5986 4.8212-14.059 2.5258-12.326-4.3795 3.891-15.503 48.546-18.893 68.924-5.2321 12.671 8.4939 6.542 18.287-6.3131 10.088zm16.003-17.552c-23.996-17.559-55.809-18.062-81.138-1.2837-13.213 8.7529-21.351 0.59972-8.6518-8.6681 29.874-21.802 76.676-19.97 101.54 3.9739 8.1507 7.8502-2.0759 13.054-11.747 5.9779z" fill="#fff"/>
  </g>
</svg>
