<svg version="1.1" viewBox="0 0 286.79 200.08" xmlns="http://www.w3.org/2000/svg">
  <g transform="translate(-15.561 -20.966)">
    <path d="m115.5 219.5c-17.702-6.2618-16.847-32.419 1.2227-37.437 5.0992-1.4161 79.455-1.4161 84.555 0 18.512 5.1409 18.672 32.696 0.21937 37.819-6.3702 1.7685-80.853 1.4376-85.997-0.38205zm-51.816-79.946c-18.484-6.5923-17.524-32.148 1.4113-37.578 4.5837-1.3146 183.23-1.3146 187.81 0 19.515 5.5967 19.515 32.458 0 38.055-5.7497 1.649-184.52 1.1992-189.22-0.47608zm-35.047-80.016c-17.981-6.41-17.228-32.389 1.0854-37.475 5.2547-1.4592 253.3-1.4592 258.55 0 18.769 5.2123 18.769 32.667 0 37.88-6.281 1.7443-254.7 1.3571-259.64-0.40468z" fill="#fff"/>
  </g>
</svg>
