<svg version="1.1" viewBox="0 0 479 272.77" xmlns="http://www.w3.org/2000/svg">
  <g transform="translate(-35.499 -103.61)">
    <g transform="translate(28.067 92.503)" fill="#fff">
      <path d="m219.75 11.277c1.7875-0.22183 4.7125-0.22183 6.5 0 1.7875 0.22183 0.325 0.40332-3.25 0.40332s-5.0375-0.1815-3.25-0.40332z"/>
      <path d="m470.23 203c0-1.925 0.2058-2.7125 0.45733-1.75 0.25152 0.9625 0.25152 2.5375 0 3.5-0.25153 0.9625-0.45733 0.175-0.45733-1.75z"/>
      <path d="m29.946 258.25c-3.4462-3.75-3.4462-3.75 0.30383-0.30383 2.0625 1.8954 3.75 3.5829 3.75 3.75 0 0.76362-0.84622 0.0442-4.0538-3.4462zm433.05 0.25c1.8658-1.925 3.6173-3.5 3.8923-3.5s-1.0266 1.575-2.8923 3.5-3.6173 3.5-3.8923 3.5 1.0266-1.575 2.8923-3.5zm-12.5-9.5c2.1482-2.2 4.1309-4 4.4059-4s-1.2577 1.8-3.4059 4-4.1309 4-4.4059 4 1.2577-1.8 3.4059-4zm-33.214-119.5c8e-3 -2.75 0.20172-3.7563 0.43157-2.2362 0.22986 1.5201 0.22371 3.7701-0.0136 5-0.23736 1.2299-0.42542-0.0137-0.41792-2.7638zm-270.89-23.5c0-7.975 0.1553-11.238 0.34512-7.25 0.18981 3.9875 0.18981 10.512 0 14.5-0.18982 3.9875-0.34512 0.725-0.34512-7.25zm-44.636-13.707c1.2439-0.23919 3.0439-0.23011 4 0.02018s-0.0617 0.446-2.2617 0.4349c-2.2-0.0111-2.9822-0.21588-1.7383-0.45508z"/>
      <path d="m82.5 282.99c-60.836-6.7041-94.421-71.127-63.197-121.23 7.3197-11.744 24.765-27.429 33.642-30.246 1.1335-0.35977 2.4987-2.6017 3.5331-5.8019 8.8096-27.256 44.136-41.177 70.44-27.757 3.857 1.9677 3.857 1.9677 4.5345-4.7452 2.2708-22.498 10.092-39.435 25.167-54.503 50.035-50.009 147.29-25.851 164.92 40.966 0.99043 3.7531 1.9282 6.9902 2.084 7.1936 0.1558 0.20332 2.4992-1.257 5.2077-3.2452 40.004-29.365 96.296-7.3485 103.67 40.545 0.51685 3.3591 1.102 3.9213 6.908 6.6383 70.753 33.109 59.172 130.47-17.933 150.76-7.4567 1.9627-322.08 3.2785-338.97 1.4176zm335.44-15.615c65.371-16.195 71.339-101.29 8.8427-126.07-7.5265-2.9851-8.7788-4.391-8.7788-9.8552 0-53.455-87.669-65.213-93.574-12.55-1.0697 9.5404-6.5132 13.09-12.565 8.1945-2.2932-1.8552-2.3773-2.4633-2.9391-21.25-1.342-44.882-26.939-72.645-72.717-78.872-53.031-7.2132-90.032 25.801-90.169 80.453-0.0503 20.065-4.7595 23.575-16.004 11.926-7.2349-7.4952-14.119-10.676-24.177-11.173-19.381-0.95616-31.185 8.249-37.482 29.23-0.69397 2.3123-2.5042 3.7386-8.8719 6.9904-54.987 28.08-45.471 106.81 14.822 122.61 10.372 2.7186 332.73 3.0615 343.61 0.36559z"/>
    </g>
  </g>
</svg>
