<svg version="1.1" viewBox="0 0 464.37 289.98" xmlns="http://www.w3.org/2000/svg">
  <g transform="translate(-7.817 -95.008)">
    <g transform="matrix(8.5216 0 0 8.5216 -304.14 -103.53)" fill="#fff" stroke-width=".59252">
      <path d="m55.983 23.374c4.6439-0.10011 12.243-0.10011 16.887 0 4.6439 0.10011 0.84434 0.18202-8.4434 0.18202-9.2877 0-13.087-0.08191-8.4434-0.18202z"/>
      <path d="m55.687 57.147c4.8068-0.09959 12.672-0.09959 17.479 0s0.87396 0.18108-8.7396 0.18108c-9.6136 0-13.546-0.08149-8.7396-0.18108zm-0.59252-26.663c4.8068-0.09959 12.672-0.09959 17.479 0 4.8068 0.09959 0.87396 0.18108-8.7396 0.18108s-13.546-0.08149-8.7396-0.18108z"/>
      <path d="m51.243 37.001c6.9251-0.09479 18.257-0.09479 25.182 0 6.9251 0.09479 1.2591 0.17234-12.591 0.17234-13.85 0-19.516-0.07755-12.591-0.17234z"/>
      <path d="m55.39 29.3c3.9921-0.10251 10.525-0.10251 14.517 0 3.9921 0.10251 0.72583 0.18638-7.2583 0.18638s-11.25-0.08387-7.2583-0.18638z"/>
      <path d="m44.399 56.287c-0.95467-0.95467-0.90339-3.7244 0.08414-4.5439 0.43734-0.36296 0.97061-0.48449 1.185-0.27006 0.21443 0.21443 0.38987 0.06789 0.38987-0.32565 0-1.0078 36.358-0.69115 37.374 0.32545 0.91348 0.91453 0.88899 3.5108-0.04372 4.6346-0.98 1.1808-37.818 1.3505-38.989 0.17958zm-6.4881-13.235c-1.4366-1.0066-1.6988-2.6316-0.7198-4.4609 0.75699-1.4144 51.79-1.8319 53.187-0.43506 1.133 1.133 0.88081 4.4891-0.38831 5.1683-2.0407 1.0922-50.493 0.83884-52.079-0.27229zm6.4881-13.428c-1.0625-1.0625-0.85797-3.7125 0.37254-4.8261 1.6964-1.5352 36.591-1.4833 37.853 0.05629 0.51985 0.63423 0.68404 0.69176 0.42278 0.14813-0.33434-0.69571-0.26344-0.73754 0.32638-0.19257 0.96372 0.89044 0.97175 3.4811 0.01437 4.6346-0.98 1.1808-37.818 1.3505-38.989 0.17958zm25.508-0.32411c-3.9921-0.10251-10.525-0.10251-14.517 0-3.9921 0.10251-0.72583 0.18638 7.2583 0.18638s11.25-0.08387 7.2583-0.18638z"/>
    </g>
  </g>
</svg>
