<svg version="1.1" viewBox="0 0 267.48 234.24" xmlns="http://www.w3.org/2000/svg">
  <path d="m64.497 232.71c-44.658-8.2612-73.218-52.201-62.086-95.522 9.9697-38.8 49.552-64.406 89.005-57.58 9.8313 1.7011 9.8313 1.7011 15.909-4.0459 43.168-40.821 117.36 2.9373 98.007 57.801-1.5276 4.3296-1.4986 4.4486 2.5952 10.652 21.593 32.72 5.9 75.127-32.475 87.756-8.2036 2.6998-97.358 3.4541-110.95 0.93881zm111.08-21.388c48.975-24.063 12.894-91.568-37.288-69.765-1.4 0.60828-1.899 0.32547-1.899-1.0762 0-19.239-31.675-42.823-57.514-42.823-68.711 0-81.412 97.424-15.058 115.51 12.201 3.3252 104.33 1.8055 111.76-1.8435zm12.901-93.455c0-33.151-40.097-52.031-65.501-30.841-3.1041 2.5892-3.1041 2.5892 1.5016 5.6372 7.072 4.68 13.845 11.328 19.232 18.877 4.8939 6.8582 4.8939 6.8582 10.452 6.1772 7.0006-0.85777 18.812 1.0122 26.655 4.2199 7.4638 3.0527 7.6605 2.9482 7.6605-4.07zm46.662 8.3246c-14.941-5.4619-7.2568-18.037 11.358-18.586 16.913-0.4984 22.615 2.8304 20.596 12.023-1.3522 6.1566-21.657 10.327-31.954 6.5624zm-163.72-71.327c-10.529-10.341-12.15-15.134-6.8971-20.387 8.1046-8.1046 34.075 13.169 29.515 24.177-3.6904 8.9093-10.922 7.6975-22.618-3.7902zm133.52 6.642c-7.0765-7.5326 11.672-32.181 22.445-29.509 11.158 2.7682 10.571 10.268-1.7661 22.548-10.788 10.738-15.607 12.36-20.679 6.961zm-60.839-23.918c-8.4781-4.8434-7.9034-32.837 0.74772-36.42 9.2714-3.8403 13.24 1.6881 13.24 18.443 0 16.537-5.08 23.066-13.988 17.977z" fill="#fff" stroke-width="1.0852"/>
</svg>
