<svg version="1.1" viewBox="0 0 357.56 416.48" xmlns="http://www.w3.org/2000/svg">
  <g transform="matrix(-.88201 .27889 -.27889 -.88201 445.74 362.32)">
    <g transform="translate(17.939,-22.16)" fill="#fff">
      <path d="m352.5 390c3.2656-3.3 6.1624-6 6.4374-6s-2.1718 2.7-5.4374 6-6.1624 6-6.4374 6 2.1718-2.7 5.4374-6z"/>
      <path d="m262 516.95c0-66.189-43.352-118.64-109.5-132.5-8.8-1.8426-24.977-5.2147-35.948-7.4935-35.299-7.3317-51.128-15.204-69.534-34.581-46.795-49.263-40.476-142.38 13.246-195.2 6.4248-6.3165 6.4248-6.3165 7.0624 4.1034 3.5905 58.681 37.598 106.36 87.809 123.11 6.1998 2.0679 28.97 7.1153 68.366 15.154 93.298 19.038 121.4 141.67 50.78 221.63-11.257 12.747-12.28 13.227-12.28 5.7739zm84.716-132.01c-2.6141-44.974-24.194-85.661-57.273-107.98-18.425-12.433-29.242-16.136-72.943-24.971-40.334-8.1541-48.4-10.735-64.067-20.5-63.882-39.816-69.976-142.15-12.321-206.9 11.065-12.426 11.885-12.834 11.908-5.9184 0.2157 64.371 45.288 121.11 104.98 132.16 67.001 12.403 84.869 18.868 105.38 38.128 50.729 47.645 47.676 140.89-6.4646 197.45-8.5884 8.9728-8.5884 8.9728-9.1954-1.471z"/>
    </g>
  </g>
</svg>
