<svg version="1.1" viewBox="0 0 110.72 89.766" xmlns="http://www.w3.org/2000/svg">
  <g transform="translate(-6.3975 -14.786)">
    <path d="m86.066 103.98c-1.7131-1.7131-0.22097-4.841 4.82-10.105 6.6481-6.9415 6.6976-5.5564-0.4511-12.614-4.9744-4.911-5.796-6.194-4.9632-7.75 1.556-2.9073 2.9303-2.3043 9.4302 4.1379 6.0564 6.0026 6.0564 6.0026 12.262-0.0884 6.2531-6.1379 7.7152-6.6863 9.6498-3.6194 0.86765 1.3755-0.0588 2.8017-5.1702 7.9589-6.2272 6.2831-6.2272 6.2831 7e-3 12.518 5.244 5.244 6.0595 6.5121 5.1326 7.9816-1.7351 2.7507-3.0735 2.1519-9.4347-4.2203-5.9569-5.9674-5.9569-5.9674-12.23 0.25-6.0591 6.0052-7.633 6.9703-9.0526 5.5507zm-27.647-1.5772c-6.9533-3.632-5.827-14.333 1.7076-16.224 5.9101-1.4834 12.085 4.4949 10.779 10.437-1.1853 5.3967-7.5696 8.3554-12.487 5.7868zm13.671-26.854c-5.4967-2.9006-12.259-3.4417-17.691-1.4159-7.4103 2.7634-8.9188 2.8977-11.035 0.98248-6.485-5.8688 2.5918-13.42 16.402-13.646 10.217-0.16686 22.439 4.0934 22.791 7.9445 0.697 7.6242-3.2552 9.9406-10.467 6.1349zm14.809-18.483c-14.16-9.8312-35.3-9.9968-50.816-0.39795-10.948 6.7725-17.119-2.5535-6.4212-9.7032 19.334-12.921 49.815-11.904 66.604 2.2239 8.9972 7.5707 0.49317 14.723-9.3665 7.8773zm17.5-16.519c-21.252-18.332-57.42-19.405-82.911-2.459-10.265 6.8244-20.105 2.5755-12.243-5.2866 24.351-24.351 80.377-23.931 105.1 0.78889 6.886 6.886-2.4514 13.419-9.9429 6.9567z" fill="#fff" fill-opacity=".41725"/>
  </g>
</svg>
